<svg version="1.1" id="Layer_1" xmlns="http://www.w3.org/2000/svg" xmlns:xlink="http://www.w3.org/1999/xlink" x="0px" y="0px"
	 width="100%" viewBox="0 0 1024 1024" enable-background="new 0 0 1024 1024" xml:space="preserve">
<path fill="#FDFCFA" opacity="1.000000" stroke="none" 
	d="
M675.000000,1025.000000 
	C450.000000,1025.000000 225.500000,1025.000000 1.000000,1025.000000 
	C1.000000,683.666687 1.000000,342.333344 1.000000,1.000000 
	C342.333344,1.000000 683.666687,1.000000 1025.000000,1.000000 
	C1025.000000,342.333344 1025.000000,683.666687 1025.000000,1025.000000 
	C908.500000,1025.000000 792.000000,1025.000000 675.000000,1025.000000 
M545.792175,168.002899 
	C536.506470,167.940552 527.215637,167.668915 517.936890,167.894363 
	C512.367737,168.029678 506.810730,169.453217 501.260162,169.381149 
	C493.293762,169.277679 485.422577,168.602859 478.170380,173.031189 
	C476.384430,174.121735 474.128906,174.635651 472.018799,174.969833 
	C462.635132,176.455948 453.540710,178.790314 445.088806,183.280289 
	C440.705872,185.608673 437.007782,188.321274 436.270203,193.839645 
	C436.066467,195.363892 434.659546,197.149200 433.296600,198.014145 
	C429.800690,200.232727 425.854462,201.747238 422.383026,203.997864 
	C411.553925,211.018661 400.051941,217.306076 390.326416,225.645325 
	C378.907043,235.436966 369.069397,247.074722 358.561615,257.927216 
	C354.985046,261.621185 351.749268,265.706940 347.849182,269.013885 
	C337.862091,277.482025 330.827057,287.922485 325.738892,299.860931 
	C323.787079,304.440430 321.300323,308.792633 319.362488,313.377350 
	C312.530640,329.541138 305.833466,345.761810 299.080658,361.959015 
	C292.888947,376.810425 296.104431,392.867767 293.222687,408.207184 
	C291.538483,417.172180 292.339142,426.611237 292.107452,435.839172 
	C291.962433,441.613861 291.726685,447.405121 292.016632,453.164520 
	C292.180328,456.415131 293.395447,459.603119 294.016266,462.842438 
	C295.293549,469.507812 295.824432,476.400024 297.862335,482.817871 
	C301.720642,494.968628 305.619263,507.225952 310.985413,518.747681 
	C317.407410,532.536377 324.496338,546.197021 332.958588,558.796875 
	C340.119202,569.458557 349.682190,578.500427 358.122162,588.310669 
	C371.797546,604.206177 388.925720,616.090515 405.819244,627.988464 
	C422.201233,639.526123 441.567505,645.274475 460.340210,651.905640 
	C468.113495,654.651550 475.927002,657.283447 483.707733,660.008606 
	C486.480103,660.979492 487.557678,662.576172 486.413544,665.726868 
	C484.378693,671.330688 482.466095,677.014160 481.044098,682.797485 
	C478.630219,692.614624 476.729614,702.556702 474.441376,712.406311 
	C472.040039,722.742615 469.205994,732.983032 467.005554,743.359619 
	C465.625519,749.867371 464.802338,751.247131 458.157654,750.157837 
	C449.647369,748.762695 441.279114,746.521057 432.813751,744.823120 
	C428.443756,743.946594 423.869507,743.902954 419.611450,742.694275 
	C412.143585,740.574463 404.783936,738.020264 397.502533,735.315369 
	C392.548523,733.475037 387.821899,731.028870 382.959167,728.933472 
	C381.150543,728.154114 379.273315,727.497620 377.376862,726.964966 
	C370.021759,724.899170 362.232666,723.816528 355.364288,720.696594 
	C340.896027,714.124390 327.129333,706.006287 312.654205,699.451111 
	C299.586243,693.533325 288.426636,684.889954 278.241028,675.400879 
	C269.651611,667.398804 260.381165,659.685669 254.360428,649.007080 
	C250.223755,641.670044 243.768555,635.579224 240.026871,628.093079 
	C231.838486,611.710388 222.856644,595.806641 216.580444,578.309937 
	C210.871628,562.395020 206.083939,546.281921 201.319351,530.128540 
	C200.672867,527.936707 201.559937,524.347656 203.097900,522.610474 
	C212.664398,511.804688 222.721527,501.435181 232.404160,490.729431 
	C237.733627,484.836823 243.029144,478.841827 247.643661,472.394623 
	C252.119598,466.141022 250.344955,456.144348 244.851273,452.097382 
	C238.089386,447.116180 229.633438,448.097107 223.860764,454.722778 
	C215.897659,463.862610 208.089447,473.137482 200.104065,482.257477 
	C199.276291,483.202820 197.697861,483.490875 196.467743,484.083923 
	C195.943207,482.800415 194.989899,481.519470 194.982132,480.232849 
	C194.965302,477.435303 195.729233,474.626190 195.648239,471.837097 
	C195.274048,458.949188 194.443344,446.069366 194.308655,433.181091 
	C194.177399,420.621887 194.816742,408.056458 194.870605,395.492706 
	C194.897583,389.199463 188.781769,381.963959 183.457031,381.354126 
	C175.371948,380.428223 168.890472,384.129883 167.041656,392.267548 
	C165.290558,399.975098 164.283234,408.018402 164.270035,415.916229 
	C164.248444,428.851959 165.321289,441.788513 165.848145,454.728149 
	C165.889328,455.739532 165.270432,456.777771 164.712891,458.610168 
	C159.930908,454.267334 157.377380,449.410492 155.027359,444.360016 
	C148.253403,429.802002 141.660126,415.150787 134.474121,400.797363 
	C130.601593,393.062317 120.036240,389.194183 113.765213,392.262756 
	C108.081322,395.044037 103.839729,406.698059 106.497070,412.918518 
	C111.315445,424.197510 116.052246,435.525757 121.350494,446.580658 
	C125.437668,455.108673 130.357056,463.236389 134.842880,471.576233 
	C135.618271,473.017822 136.076523,474.630005 136.681274,476.163391 
	C136.289291,476.470642 135.897324,476.777863 135.505356,477.085083 
	C134.248322,476.268524 132.730499,475.682068 131.775192,474.599304 
	C123.437599,465.149414 111.736610,460.525940 101.538429,453.823700 
	C94.918175,449.472900 87.273521,445.687714 78.562767,449.109955 
	C73.808640,450.977722 67.943558,461.204315 70.290154,465.078766 
	C72.837151,469.284149 75.937531,473.601013 79.834869,476.447876 
	C87.699425,482.192749 96.290787,486.937683 104.536316,492.167694 
	C110.135323,495.718994 115.755936,499.252075 121.170395,503.071838 
	C123.984581,505.057220 126.062485,508.197388 129.012177,509.858368 
	C137.376663,514.568481 146.112183,518.617065 154.510803,523.270447 
	C158.474045,525.466370 162.979126,527.752075 165.476822,531.253784 
	C168.571594,535.592590 170.004257,541.175293 171.863785,546.325745 
	C177.040451,560.663818 182.072632,575.054077 187.147537,589.428833 
	C188.299149,592.690735 189.203339,596.053528 190.550354,599.230408 
	C193.887741,607.101501 197.105118,615.047852 200.940582,622.677490 
	C206.435654,633.608398 211.302917,645.120239 218.487640,654.874512 
	C229.466934,669.780640 241.216644,684.404175 254.451767,697.285278 
	C268.219727,710.685059 282.060394,724.678955 301.210785,731.164246 
	C306.453186,732.939514 310.850342,737.094849 316.019409,739.226929 
	C326.516052,743.556580 337.261719,747.286316 347.928802,751.197815 
	C360.545288,755.824158 373.091736,760.671265 385.850708,764.869019 
	C394.662659,767.768250 403.838684,769.540283 412.753113,772.153442 
	C425.628357,775.927673 438.369995,780.159607 451.257355,783.889648 
	C457.241547,785.621704 457.992981,786.014587 456.902222,791.940063 
	C454.385284,805.613159 451.718048,819.258911 449.064240,832.906494 
	C446.218262,847.542358 443.201721,862.145996 440.470551,876.802979 
	C437.042542,895.199585 433.961761,913.661316 430.470825,932.045532 
	C428.506989,942.387512 433.871796,948.029846 441.305328,951.579590 
	C444.093628,952.910950 448.965240,952.724487 451.552002,951.101868 
	C459.440765,946.153137 464.037842,938.719421 465.104248,929.111755 
	C466.454285,916.948364 468.037720,904.795959 470.027100,892.722351 
	C472.315155,878.835938 475.061493,865.021545 477.823730,851.218933 
	C478.534088,847.669189 480.438843,844.356262 481.128632,840.805054 
	C483.548920,828.344849 485.636688,815.820251 487.975006,803.343445 
	C488.248993,801.881409 489.295929,800.564270 489.984589,799.179932 
	C491.379425,799.939636 493.079376,800.408508 494.122742,801.503235 
	C507.337463,815.367981 519.447571,830.171875 528.738281,846.944519 
	C536.522766,860.998047 543.918823,875.336243 550.386230,890.032776 
	C559.255249,910.186584 566.887817,930.881104 575.457336,951.171997 
	C578.787537,959.057129 588.750793,961.561096 598.045837,957.731262 
	C605.196777,954.784973 608.950745,946.820007 605.975342,938.986938 
	C602.518555,929.886536 598.311523,921.066284 594.301453,912.182434 
	C590.580688,903.939697 586.883362,895.676758 582.827759,887.597351 
	C577.251343,876.488403 575.848450,863.875671 569.222900,853.026733 
	C562.525635,842.060486 558.127197,829.688171 548.711548,820.407043 
	C547.540039,819.252258 546.604126,817.841370 545.651855,816.484009 
	C538.675293,806.539673 533.830933,795.283569 523.826782,787.234558 
	C516.049622,780.977356 509.901154,772.612000 503.464294,764.823730 
	C501.526855,762.479553 499.772278,758.768982 500.124054,755.958496 
	C501.641388,743.836121 504.262787,731.855469 505.927612,719.747009 
	C507.716705,706.734497 509.922211,693.889221 514.567871,681.523743 
	C515.871521,678.053833 515.821960,674.064575 517.201111,670.638794 
	C517.850098,669.026733 520.333862,667.347412 522.124451,667.180359 
	C525.188599,666.894531 528.351318,667.957336 531.490479,668.132080 
	C545.040710,668.886108 558.597595,670.038635 572.151917,670.036438 
	C582.586609,670.034790 593.107727,669.094971 603.429565,667.518921 
	C612.426697,666.145020 621.135986,662.987122 630.085815,661.178284 
	C642.490295,658.671326 654.296692,654.596985 665.604187,649.010559 
	C674.487061,644.621826 683.622742,640.629517 692.084167,635.528870 
	C706.363708,626.921082 721.074402,618.768738 731.471252,604.990356 
	C735.653625,599.447571 740.357666,594.238770 745.258606,589.309814 
	C757.564697,576.933167 765.781799,561.914124 772.398621,546.142700 
	C777.820618,533.219055 781.815735,519.672302 786.001770,506.263855 
	C788.504456,498.247406 790.644714,490.048828 792.058167,481.780060 
	C793.553162,473.034027 793.883118,464.094574 794.929871,455.264252 
	C795.668030,449.037506 797.009949,442.876923 797.616638,436.641479 
	C798.334167,429.267731 798.989258,421.837982 798.866638,414.445831 
	C798.732178,406.335846 798.099182,398.178619 796.903320,390.158295 
	C795.839783,383.024750 793.815002,376.023254 792.023193,369.012360 
	C789.783813,360.250580 787.873352,351.351837 784.846619,342.859436 
	C781.974976,334.802032 777.871216,327.181000 774.252136,319.394653 
	C773.349731,317.453125 772.371399,315.517365 771.183350,313.742737 
	C760.219238,297.366241 749.361206,280.914642 738.114502,264.733582 
	C734.059082,258.898987 729.581238,253.129608 724.329590,248.404846 
	C714.895203,239.916870 704.828552,232.115494 694.831787,224.275024 
	C689.248047,219.895706 683.431763,215.762878 677.425781,211.987457 
	C672.396606,208.826126 666.906555,206.405838 661.683411,203.542862 
	C657.609131,201.309616 653.856873,198.302841 649.567505,196.683655 
	C637.636108,192.179749 625.516479,188.169067 613.433533,184.074860 
	C609.669006,182.799255 605.756531,181.966690 601.959900,180.777695 
	C593.788208,178.218536 585.776062,175.003647 577.461548,173.084091 
	C567.365967,170.753357 557.413696,167.035812 545.792175,168.002899 
z"/>
<path fill="#4992CC" opacity="1.000000" stroke="none" 
	d="
M546.266968,168.034454 
	C557.413696,167.035812 567.365967,170.753357 577.461548,173.084091 
	C585.776062,175.003647 593.788208,178.218536 601.959900,180.777695 
	C605.756531,181.966690 609.669006,182.799255 613.433533,184.074860 
	C625.516479,188.169067 637.636108,192.179749 649.567505,196.683655 
	C653.856873,198.302841 657.609131,201.309616 661.683411,203.542862 
	C666.906555,206.405838 672.396606,208.826126 677.425781,211.987457 
	C683.431763,215.762878 689.248047,219.895706 694.831787,224.275024 
	C704.828552,232.115494 714.895203,239.916870 724.329590,248.404846 
	C729.581238,253.129608 734.059082,258.898987 738.114502,264.733582 
	C749.361206,280.914642 760.219238,297.366241 771.183350,313.742737 
	C772.371399,315.517365 773.349731,317.453125 774.252136,319.394653 
	C777.871216,327.181000 781.974976,334.802032 784.846619,342.859436 
	C787.873352,351.351837 789.783813,360.250580 792.023193,369.012360 
	C793.815002,376.023254 795.839783,383.024750 796.903320,390.158295 
	C798.099182,398.178619 798.732178,406.335846 798.866638,414.445831 
	C798.989258,421.837982 798.334167,429.267731 797.616638,436.641479 
	C797.009949,442.876923 795.668030,449.037506 794.929871,455.264252 
	C793.883118,464.094574 793.553162,473.034027 792.058167,481.780060 
	C790.644714,490.048828 788.504456,498.247406 786.001770,506.263855 
	C781.815735,519.672302 777.820618,533.219055 772.398621,546.142700 
	C765.781799,561.914124 757.564697,576.933167 745.258606,589.309814 
	C740.357666,594.238770 735.653625,599.447571 731.471252,604.990356 
	C721.074402,618.768738 706.363708,626.921082 692.084167,635.528870 
	C683.622742,640.629517 674.487061,644.621826 665.604187,649.010559 
	C654.296692,654.596985 642.490295,658.671326 630.085815,661.178284 
	C621.135986,662.987122 612.426697,666.145020 603.429565,667.518921 
	C593.107727,669.094971 582.586609,670.034790 572.151917,670.036438 
	C558.597595,670.038635 545.040710,668.886108 531.490479,668.132080 
	C528.351318,667.957336 525.188599,666.894531 522.124451,667.180359 
	C520.333862,667.347412 517.850098,669.026733 517.201111,670.638794 
	C515.821960,674.064575 515.871521,678.053833 514.567871,681.523743 
	C509.922211,693.889221 507.716705,706.734497 505.927612,719.747009 
	C504.262787,731.855469 501.641388,743.836121 500.124054,755.958496 
	C499.772278,758.768982 501.526855,762.479553 503.464294,764.823730 
	C509.901154,772.612000 516.049622,780.977356 523.826782,787.234558 
	C533.830933,795.283569 538.675293,806.539673 545.651855,816.484009 
	C546.604126,817.841370 547.540039,819.252258 548.711548,820.407043 
	C558.127197,829.688171 562.525635,842.060486 569.222900,853.026733 
	C575.848450,863.875671 577.251343,876.488403 582.827759,887.597351 
	C586.883362,895.676758 590.580688,903.939697 594.301453,912.182434 
	C598.311523,921.066284 602.518555,929.886536 605.975342,938.986938 
	C608.950745,946.820007 605.196777,954.784973 598.045837,957.731262 
	C588.750793,961.561096 578.787537,959.057129 575.457336,951.171997 
	C566.887817,930.881104 559.255249,910.186584 550.386230,890.032776 
	C543.918823,875.336243 536.522766,860.998047 528.738281,846.944519 
	C519.447571,830.171875 507.337463,815.367981 494.122742,801.503235 
	C493.079376,800.408508 491.379425,799.939636 489.984589,799.179932 
	C489.295929,800.564270 488.248993,801.881409 487.975006,803.343445 
	C485.636688,815.820251 483.548920,828.344849 481.128632,840.805054 
	C480.438843,844.356262 478.534088,847.669189 477.823730,851.218933 
	C475.061493,865.021545 472.315155,878.835938 470.027100,892.722351 
	C468.037720,904.795959 466.454285,916.948364 465.104248,929.111755 
	C464.037842,938.719421 459.440765,946.153137 451.552002,951.101868 
	C448.965240,952.724487 444.093628,952.910950 441.305328,951.579590 
	C433.871796,948.029846 428.506989,942.387512 430.470825,932.045532 
	C433.961761,913.661316 437.042542,895.199585 440.470551,876.802979 
	C443.201721,862.145996 446.218262,847.542358 449.064240,832.906494 
	C451.718048,819.258911 454.385284,805.613159 456.902222,791.940063 
	C457.992981,786.014587 457.241547,785.621704 451.257355,783.889648 
	C438.369995,780.159607 425.628357,775.927673 412.753113,772.153442 
	C403.838684,769.540283 394.662659,767.768250 385.850708,764.869019 
	C373.091736,760.671265 360.545288,755.824158 347.928802,751.197815 
	C337.261719,747.286316 326.516052,743.556580 316.019409,739.226929 
	C310.850342,737.094849 306.453186,732.939514 301.210785,731.164246 
	C282.060394,724.678955 268.219727,710.685059 254.451767,697.285278 
	C241.216644,684.404175 229.466934,669.780640 218.487640,654.874512 
	C211.302917,645.120239 206.435654,633.608398 200.940582,622.677490 
	C197.105118,615.047852 193.887741,607.101501 190.550354,599.230408 
	C189.203339,596.053528 188.299149,592.690735 187.147537,589.428833 
	C182.072632,575.054077 177.040451,560.663818 171.863785,546.325745 
	C170.004257,541.175293 168.571594,535.592590 165.476822,531.253784 
	C162.979126,527.752075 158.474045,525.466370 154.510803,523.270447 
	C146.112183,518.617065 137.376663,514.568481 129.012177,509.858368 
	C126.062485,508.197388 123.984581,505.057220 121.170395,503.071838 
	C115.755936,499.252075 110.135323,495.718994 104.536316,492.167694 
	C96.290787,486.937683 87.699425,482.192749 79.834869,476.447876 
	C75.937531,473.601013 72.837151,469.284149 70.290154,465.078766 
	C67.943558,461.204315 73.808640,450.977722 78.562767,449.109955 
	C87.273521,445.687714 94.918175,449.472900 101.538429,453.823700 
	C111.736610,460.525940 123.437599,465.149414 131.775192,474.599304 
	C132.730499,475.682068 134.248322,476.268524 135.505356,477.085083 
	C135.897324,476.777863 136.289291,476.470642 136.681274,476.163391 
	C136.076523,474.630005 135.618271,473.017822 134.842880,471.576233 
	C130.357056,463.236389 125.437668,455.108673 121.350494,446.580658 
	C116.052246,435.525757 111.315445,424.197510 106.497070,412.918518 
	C103.839729,406.698059 108.081322,395.044037 113.765213,392.262756 
	C120.036240,389.194183 130.601593,393.062317 134.474121,400.797363 
	C141.660126,415.150787 148.253403,429.802002 155.027359,444.360016 
	C157.377380,449.410492 159.930908,454.267334 164.712891,458.610168 
	C165.270432,456.777771 165.889328,455.739532 165.848145,454.728149 
	C165.321289,441.788513 164.248444,428.851959 164.270035,415.916229 
	C164.283234,408.018402 165.290558,399.975098 167.041656,392.267548 
	C168.890472,384.129883 175.371948,380.428223 183.457031,381.354126 
	C188.781769,381.963959 194.897583,389.199463 194.870605,395.492706 
	C194.816742,408.056458 194.177399,420.621887 194.308655,433.181091 
	C194.443344,446.069366 195.274048,458.949188 195.648239,471.837097 
	C195.729233,474.626190 194.965302,477.435303 194.982132,480.232849 
	C194.989899,481.519470 195.943207,482.800415 196.467743,484.083923 
	C197.697861,483.490875 199.276291,483.202820 200.104065,482.257477 
	C208.089447,473.137482 215.897659,463.862610 223.860764,454.722778 
	C229.633438,448.097107 238.089386,447.116180 244.851273,452.097382 
	C250.344955,456.144348 252.119598,466.141022 247.643661,472.394623 
	C243.029144,478.841827 237.733627,484.836823 232.404160,490.729431 
	C222.721527,501.435181 212.664398,511.804688 203.097900,522.610474 
	C201.559937,524.347656 200.672867,527.936707 201.319351,530.128540 
	C206.083939,546.281921 210.871628,562.395020 216.580444,578.309937 
	C222.856644,595.806641 231.838486,611.710388 240.026871,628.093079 
	C243.768555,635.579224 250.223755,641.670044 254.360428,649.007080 
	C260.381165,659.685669 269.651611,667.398804 278.241028,675.400879 
	C288.426636,684.889954 299.586243,693.533325 312.654205,699.451111 
	C327.129333,706.006287 340.896027,714.124390 355.364288,720.696594 
	C362.232666,723.816528 370.021759,724.899170 377.376862,726.964966 
	C379.273315,727.497620 381.150543,728.154114 382.959167,728.933472 
	C387.821899,731.028870 392.548523,733.475037 397.502533,735.315369 
	C404.783936,738.020264 412.143585,740.574463 419.611450,742.694275 
	C423.869507,743.902954 428.443756,743.946594 432.813751,744.823120 
	C441.279114,746.521057 449.647369,748.762695 458.157654,750.157837 
	C464.802338,751.247131 465.625519,749.867371 467.005554,743.359619 
	C469.205994,732.983032 472.040039,722.742615 474.441376,712.406311 
	C476.729614,702.556702 478.630219,692.614624 481.044098,682.797485 
	C482.466095,677.014160 484.378693,671.330688 486.413544,665.726868 
	C487.557678,662.576172 486.480103,660.979492 483.707733,660.008606 
	C475.927002,657.283447 468.113495,654.651550 460.340210,651.905640 
	C441.567505,645.274475 422.201233,639.526123 405.819244,627.988464 
	C388.925720,616.090515 371.797546,604.206177 358.122162,588.310669 
	C349.682190,578.500427 340.119202,569.458557 332.958588,558.796875 
	C324.496338,546.197021 317.407410,532.536377 310.985413,518.747681 
	C305.619263,507.225952 301.720642,494.968628 297.862335,482.817871 
	C295.824432,476.400024 295.293549,469.507812 294.016266,462.842438 
	C293.395447,459.603119 292.180328,456.415131 292.016632,453.164520 
	C291.726685,447.405121 291.962433,441.613861 292.107452,435.839172 
	C292.339142,426.611237 291.538483,417.172180 293.222687,408.207184 
	C296.104431,392.867767 292.888947,376.810425 299.080658,361.959015 
	C305.833466,345.761810 312.530640,329.541138 319.362488,313.377350 
	C321.300323,308.792633 323.787079,304.440430 325.738892,299.860931 
	C330.827057,287.922485 337.862091,277.482025 347.849182,269.013885 
	C351.749268,265.706940 354.985046,261.621185 358.561615,257.927216 
	C369.069397,247.074722 378.907043,235.436966 390.326416,225.645325 
	C400.051941,217.306076 411.553925,211.018661 422.383026,203.997864 
	C425.854462,201.747238 429.800690,200.232727 433.296600,198.014145 
	C434.659546,197.149200 436.066467,195.363892 436.270203,193.839645 
	C437.007782,188.321274 440.705872,185.608673 445.088806,183.280289 
	C453.540710,178.790314 462.635132,176.455948 472.018799,174.969833 
	C474.128906,174.635651 476.384430,174.121735 478.170380,173.031189 
	C485.422577,168.602859 493.293762,169.277679 501.260162,169.381149 
	C506.810730,169.453217 512.367737,168.029678 517.936890,167.894363 
	C527.215637,167.668915 536.506470,167.940552 546.266968,168.034454 
M406.805817,254.296387 
	C397.926514,263.020233 388.845398,271.551208 380.248291,280.544830 
	C375.560883,285.448395 372.104675,291.537964 367.366821,296.382172 
	C358.980896,304.956238 352.627686,314.680420 347.960999,325.670563 
	C344.650330,333.467316 340.747986,341.013519 337.460266,348.819183 
	C332.266815,361.149231 326.889587,373.405334 326.220947,387.152649 
	C325.941559,392.896820 324.079376,398.546448 323.427643,404.294708 
	C322.663544,411.034119 321.808258,417.863159 322.121246,424.600891 
	C322.573334,434.332550 323.476288,444.119476 325.214661,453.696259 
	C327.485992,466.208832 329.963806,478.795990 333.851715,490.868286 
	C337.074890,500.876556 342.753662,510.066711 346.834747,519.832336 
	C353.016998,534.625610 362.289917,547.357239 373.100098,558.868652 
	C381.937286,568.279053 391.810059,576.720520 401.279572,585.531555 
	C404.799683,588.806885 408.095367,592.553040 412.154449,594.977905 
	C426.363251,603.466248 440.833008,611.520691 455.277893,619.607361 
	C457.405243,620.798340 459.890076,621.449829 462.285797,622.042236 
	C467.577942,623.350708 473.121674,623.903931 478.204681,625.750854 
	C500.899750,633.997253 524.458008,637.825256 548.381714,639.091736 
	C560.775085,639.747803 573.278625,638.649780 585.716370,638.024963 
	C593.927551,637.612549 602.390564,637.710632 610.244080,635.669067 
	C624.177063,632.046997 637.794250,627.150696 651.420288,622.431580 
	C658.458862,619.993958 665.708801,617.577881 672.017639,613.756226 
	C682.214905,607.579163 691.935120,600.538757 701.416016,593.286804 
	C706.186401,589.637939 710.156494,584.871155 714.172119,580.330139 
	C717.333679,576.755005 719.918640,572.676880 722.929260,568.959473 
	C725.835693,565.370789 729.895569,562.406189 731.819824,558.387451 
	C738.887634,543.626465 745.613220,528.677612 751.785767,513.521790 
	C755.009949,505.605072 756.284058,496.905151 759.370422,488.918945 
	C765.413513,473.281738 764.231384,456.586823 767.127625,440.494873 
	C769.465454,427.505463 767.934631,414.217957 767.442871,400.986694 
	C766.833435,384.587585 762.488281,369.389160 755.712463,355.128296 
	C747.858826,338.599365 740.750305,321.515533 729.513855,306.721436 
	C722.112122,296.976196 716.612305,285.812775 707.420715,277.392029 
	C700.813049,271.338562 694.754028,264.607361 687.713196,259.125153 
	C678.352539,251.836609 669.966125,243.179214 658.451111,238.710663 
	C652.222046,236.293411 646.692200,232.089630 640.810730,228.755569 
	C637.501343,226.879593 634.284180,224.660217 630.737488,223.417389 
	C620.026306,219.663956 609.174316,216.312057 598.376953,212.804550 
	C592.610535,210.931351 586.854004,209.027069 581.074036,207.196701 
	C574.772095,205.201035 568.555908,202.163803 562.112488,201.539322 
	C546.631775,200.038956 531.042297,199.637726 515.491577,198.901276 
	C511.673279,198.720428 507.828735,198.838196 504.009521,199.053650 
	C502.416718,199.143494 500.181061,199.328430 499.394226,200.355865 
	C494.144653,207.210342 486.148682,207.079102 478.926971,209.235733 
	C472.881073,211.041214 467.020203,213.761154 461.445129,216.759811 
	C456.518280,219.409851 452.314240,223.391998 447.414825,226.107086 
	C433.120422,234.028503 419.851776,243.380295 406.805817,254.296387 
z"/>
<path fill="#FDFCFA" opacity="1.000000" stroke="none" 
	d="
M407.034027,254.022095 
	C419.851776,243.380295 433.120422,234.028503 447.414825,226.107086 
	C452.314240,223.391998 456.518280,219.409851 461.445129,216.759811 
	C467.020203,213.761154 472.881073,211.041214 478.926971,209.235733 
	C486.148682,207.079102 494.144653,207.210342 499.394226,200.355865 
	C500.181061,199.328430 502.416718,199.143494 504.009521,199.053650 
	C507.828735,198.838196 511.673279,198.720428 515.491577,198.901276 
	C531.042297,199.637726 546.631775,200.038956 562.112488,201.539322 
	C568.555908,202.163803 574.772095,205.201035 581.074036,207.196701 
	C586.854004,209.027069 592.610535,210.931351 598.376953,212.804550 
	C609.174316,216.312057 620.026306,219.663956 630.737488,223.417389 
	C634.284180,224.660217 637.501343,226.879593 640.810730,228.755569 
	C646.692200,232.089630 652.222046,236.293411 658.451111,238.710663 
	C669.966125,243.179214 678.352539,251.836609 687.713196,259.125153 
	C694.754028,264.607361 700.813049,271.338562 707.420715,277.392029 
	C716.612305,285.812775 722.112122,296.976196 729.513855,306.721436 
	C740.750305,321.515533 747.858826,338.599365 755.712463,355.128296 
	C762.488281,369.389160 766.833435,384.587585 767.442871,400.986694 
	C767.934631,414.217957 769.465454,427.505463 767.127625,440.494873 
	C764.231384,456.586823 765.413513,473.281738 759.370422,488.918945 
	C756.284058,496.905151 755.009949,505.605072 751.785767,513.521790 
	C745.613220,528.677612 738.887634,543.626465 731.819824,558.387451 
	C729.895569,562.406189 725.835693,565.370789 722.929260,568.959473 
	C719.918640,572.676880 717.333679,576.755005 714.172119,580.330139 
	C710.156494,584.871155 706.186401,589.637939 701.416016,593.286804 
	C691.935120,600.538757 682.214905,607.579163 672.017639,613.756226 
	C665.708801,617.577881 658.458862,619.993958 651.420288,622.431580 
	C637.794250,627.150696 624.177063,632.046997 610.244080,635.669067 
	C602.390564,637.710632 593.927551,637.612549 585.716370,638.024963 
	C573.278625,638.649780 560.775085,639.747803 548.381714,639.091736 
	C524.458008,637.825256 500.899750,633.997253 478.204681,625.750854 
	C473.121674,623.903931 467.577942,623.350708 462.285797,622.042236 
	C459.890076,621.449829 457.405243,620.798340 455.277893,619.607361 
	C440.833008,611.520691 426.363251,603.466248 412.154449,594.977905 
	C408.095367,592.553040 404.799683,588.806885 401.279572,585.531555 
	C391.810059,576.720520 381.937286,568.279053 373.100098,558.868652 
	C362.289917,547.357239 353.016998,534.625610 346.834747,519.832336 
	C342.753662,510.066711 337.074890,500.876556 333.851715,490.868286 
	C329.963806,478.795990 327.485992,466.208832 325.214661,453.696259 
	C323.476288,444.119476 322.573334,434.332550 322.121246,424.600891 
	C321.808258,417.863159 322.663544,411.034119 323.427643,404.294708 
	C324.079376,398.546448 325.941559,392.896820 326.220947,387.152649 
	C326.889587,373.405334 332.266815,361.149231 337.460266,348.819183 
	C340.747986,341.013519 344.650330,333.467316 347.960999,325.670563 
	C352.627686,314.680420 358.980896,304.956238 367.366821,296.382172 
	C372.104675,291.537964 375.560883,285.448395 380.248291,280.544830 
	C388.845398,271.551208 397.926514,263.020233 407.034027,254.022095 
M462.478241,495.952240 
	C459.471222,491.395081 456.677795,486.676788 453.395905,482.326965 
	C450.236847,478.139862 446.796112,474.109711 443.082916,470.408081 
	C435.919342,463.266785 421.234253,464.546295 417.059753,476.659058 
	C415.053406,482.480652 416.559753,487.440765 419.212372,492.357635 
	C431.029755,514.262207 448.680939,530.886841 468.828766,544.696899 
	C483.049072,554.444092 499.209045,560.712769 515.303528,567.095337 
	C529.724731,572.814392 544.804749,574.125610 559.637939,575.604492 
	C579.612854,577.596069 599.974426,576.124634 619.714478,572.366028 
	C638.297546,568.827698 655.021301,559.786072 670.286255,548.648621 
	C677.966370,543.045166 678.996704,532.333008 673.835876,524.414856 
	C668.825806,516.727905 661.694580,514.661377 653.784241,519.206299 
	C648.331116,522.339417 643.384827,526.340881 638.057251,529.709351 
	C627.307312,536.506287 615.840881,541.857422 603.149780,543.474609 
	C595.709717,544.422729 588.031738,543.414368 580.557800,544.204468 
	C567.474548,545.587402 554.660034,543.902344 541.957458,541.470337 
	C534.522461,540.046753 527.482178,536.536011 520.043030,535.167297 
	C512.863647,533.846375 507.019867,530.403076 501.177795,526.588867 
	C498.684418,524.960999 496.170502,523.334900 493.848511,521.479431 
	C483.497284,513.207886 473.212128,504.853729 462.478241,495.952240 
M486.600098,350.224091 
	C483.764130,365.689636 480.687866,381.116455 478.187256,396.636078 
	C476.809357,405.188080 483.100555,414.334015 490.540527,415.915985 
	C499.440491,417.808380 509.608276,412.752014 512.383301,404.509521 
	C514.492310,398.245026 516.132629,391.783936 517.452759,385.302643 
	C519.040649,377.506927 519.856628,369.555450 521.392456,361.747284 
	C523.284302,352.129303 514.283752,338.914703 504.488159,338.064270 
	C501.603729,337.813812 498.013916,338.594299 495.724609,340.251953 
	C492.322876,342.715179 489.790741,346.379364 486.600098,350.224091 
M648.899658,399.346924 
	C653.232849,390.329193 650.758911,382.297424 645.497742,374.548370 
	C641.177734,368.185516 634.700256,368.786438 628.476624,369.281250 
	C623.166687,369.703430 620.606445,373.784119 619.253052,378.459412 
	C615.662842,390.861816 612.167847,403.292725 608.754211,415.744965 
	C606.390442,424.367004 612.573975,434.870453 621.273560,437.300110 
	C628.369873,439.281952 639.988281,431.730469 642.048096,423.938385 
	C644.155151,415.967743 646.429993,408.041443 648.899658,399.346924 
z"/>
<path fill="#4891CC" opacity="1.000000" stroke="none" 
	d="
M462.690674,496.240845 
	C473.212128,504.853729 483.497284,513.207886 493.848511,521.479431 
	C496.170502,523.334900 498.684418,524.960999 501.177795,526.588867 
	C507.019867,530.403076 512.863647,533.846375 520.043030,535.167297 
	C527.482178,536.536011 534.522461,540.046753 541.957458,541.470337 
	C554.660034,543.902344 567.474548,545.587402 580.557800,544.204468 
	C588.031738,543.414368 595.709717,544.422729 603.149780,543.474609 
	C615.840881,541.857422 627.307312,536.506287 638.057251,529.709351 
	C643.384827,526.340881 648.331116,522.339417 653.784241,519.206299 
	C661.694580,514.661377 668.825806,516.727905 673.835876,524.414856 
	C678.996704,532.333008 677.966370,543.045166 670.286255,548.648621 
	C655.021301,559.786072 638.297546,568.827698 619.714478,572.366028 
	C599.974426,576.124634 579.612854,577.596069 559.637939,575.604492 
	C544.804749,574.125610 529.724731,572.814392 515.303528,567.095337 
	C499.209045,560.712769 483.049072,554.444092 468.828766,544.696899 
	C448.680939,530.886841 431.029755,514.262207 419.212372,492.357635 
	C416.559753,487.440765 415.053406,482.480652 417.059753,476.659058 
	C421.234253,464.546295 435.919342,463.266785 443.082916,470.408081 
	C446.796112,474.109711 450.236847,478.139862 453.395905,482.326965 
	C456.677795,486.676788 459.471222,491.395081 462.690674,496.240845 
z"/>
<path fill="#4791CB" opacity="1.000000" stroke="none" 
	d="
M486.744293,349.878235 
	C489.790741,346.379364 492.322876,342.715179 495.724609,340.251953 
	C498.013916,338.594299 501.603729,337.813812 504.488159,338.064270 
	C514.283752,338.914703 523.284302,352.129303 521.392456,361.747284 
	C519.856628,369.555450 519.040649,377.506927 517.452759,385.302643 
	C516.132629,391.783936 514.492310,398.245026 512.383301,404.509521 
	C509.608276,412.752014 499.440491,417.808380 490.540527,415.915985 
	C483.100555,414.334015 476.809357,405.188080 478.187256,396.636078 
	C480.687866,381.116455 483.764130,365.689636 486.744293,349.878235 
z"/>
<path fill="#4891CB" opacity="1.000000" stroke="none" 
	d="
M648.765503,399.721313 
	C646.429993,408.041443 644.155151,415.967743 642.048096,423.938385 
	C639.988281,431.730469 628.369873,439.281952 621.273560,437.300110 
	C612.573975,434.870453 606.390442,424.367004 608.754211,415.744965 
	C612.167847,403.292725 615.662842,390.861816 619.253052,378.459412 
	C620.606445,373.784119 623.166687,369.703430 628.476624,369.281250 
	C634.700256,368.786438 641.177734,368.185516 645.497742,374.548370 
	C650.758911,382.297424 653.232849,390.329193 648.765503,399.721313 
z"/>
</svg>